<mxfile host="Electron" agent="Mozilla/5.0 (Macintosh; Intel Mac OS X 10_15_7) AppleWebKit/537.36 (KHTML, like Gecko) draw.io/24.7.17 Chrome/128.0.6613.36 Electron/32.0.1 Safari/537.36" version="24.7.17">
  <diagram name="Page-1" id="KoMGqLpwK3aKk_hQyOWJ">
    <mxGraphModel dx="478" dy="285" grid="1" gridSize="10" guides="1" tooltips="1" connect="1" arrows="1" fold="1" page="1" pageScale="1" pageWidth="1200" pageHeight="1600" math="1" shadow="0">
      <root>
        <mxCell id="0" />
        <mxCell id="1" parent="0" />
        <mxCell id="X-OksMlNeAZyQAd-by_X-13" value="$$\theta_i\text{-space}$$" style="text;html=1;align=center;verticalAlign=middle;resizable=0;points=[];autosize=1;strokeColor=none;fillColor=none;" parent="1" vertex="1">
          <mxGeometry x="410" y="450" width="160" height="30" as="geometry" />
        </mxCell>
        <mxCell id="X-OksMlNeAZyQAd-by_X-14" value="$$\bar\theta_i$$" style="text;html=1;align=center;verticalAlign=middle;resizable=0;points=[];autosize=1;strokeColor=none;fillColor=none;" parent="1" vertex="1">
          <mxGeometry x="340" y="345" width="110" height="30" as="geometry" />
        </mxCell>
        <mxCell id="X-OksMlNeAZyQAd-by_X-19" value="" style="endArrow=classic;html=1;rounded=0;" parent="1" edge="1">
          <mxGeometry width="50" height="50" relative="1" as="geometry">
            <mxPoint x="360" y="400" as="sourcePoint" />
            <mxPoint x="520" y="400" as="targetPoint" />
          </mxGeometry>
        </mxCell>
        <mxCell id="X-OksMlNeAZyQAd-by_X-20" value="" style="endArrow=classic;html=1;rounded=0;" parent="1" edge="1">
          <mxGeometry width="50" height="50" relative="1" as="geometry">
            <mxPoint x="440" y="480" as="sourcePoint" />
            <mxPoint x="440" y="320" as="targetPoint" />
          </mxGeometry>
        </mxCell>
        <mxCell id="X-OksMlNeAZyQAd-by_X-21" value="" style="ellipse;whiteSpace=wrap;html=1;aspect=fixed;fillColor=none;" parent="1" vertex="1">
          <mxGeometry x="390" y="350" width="100" height="100" as="geometry" />
        </mxCell>
        <mxCell id="8U6Jh2LXMtKxCAGfWhvo-1" value="" style="endArrow=classicThin;html=1;rounded=0;strokeWidth=1;endFill=1;strokeColor=#000000;dashed=1;exitX=0.483;exitY=1.1;exitDx=0;exitDy=0;exitPerimeter=0;" edge="1" parent="1" source="8U6Jh2LXMtKxCAGfWhvo-2">
          <mxGeometry width="50" height="50" relative="1" as="geometry">
            <mxPoint x="520" y="350" as="sourcePoint" />
            <mxPoint x="469" y="385" as="targetPoint" />
          </mxGeometry>
        </mxCell>
        <mxCell id="8U6Jh2LXMtKxCAGfWhvo-2" value="$$c_{\theta_i}=\Vert\hat\theta_i\Vert^2-\bar\theta_i^2\le 0$$" style="text;html=1;align=center;verticalAlign=middle;resizable=0;points=[];autosize=1;strokeColor=none;fillColor=none;fontSize=8;" vertex="1" parent="1">
          <mxGeometry x="380" y="330" width="230" height="20" as="geometry" />
        </mxCell>
        <mxCell id="X-OksMlNeAZyQAd-by_X-17" value="Untitled Layer" parent="0" />
        <mxCell id="X-OksMlNeAZyQAd-by_X-22" value="" style="endArrow=classicThin;html=1;rounded=0;strokeWidth=1;endFill=1;strokeColor=#6666FF;entryX=0;entryY=0;entryDx=0;entryDy=0;" parent="X-OksMlNeAZyQAd-by_X-17" target="X-OksMlNeAZyQAd-by_X-21" edge="1">
          <mxGeometry width="50" height="50" relative="1" as="geometry">
            <mxPoint x="440" y="400.35" as="sourcePoint" />
            <mxPoint x="409" y="356" as="targetPoint" />
          </mxGeometry>
        </mxCell>
        <mxCell id="X-OksMlNeAZyQAd-by_X-18" value="Untitled Layer" parent="0" />
      </root>
    </mxGraphModel>
  </diagram>
</mxfile>
